<?xml version="1.0" standalone="no"?><!DOCTYPE svg PUBLIC "-//W3C//DTD SVG 1.1//EN" "http://www.w3.org/Graphics/SVG/1.1/DTD/svg11.dtd"><svg t="1692770603190" viewBox="0 0 1024 1024" fill="currentColor" version="1.1" xmlns="http://www.w3.org/2000/svg" p-id="7536" xmlns:xlink="http://www.w3.org/1999/xlink" width="32" height="32"><path d="M569.488 889.792h-396.72C112.688 889.792 64 840.8 64 780.336V221.44C64 161.024 112.688 112 172.768 112h532.576c60.08 0 108.768 49.008 108.768 109.472v193.232A271.584 271.584 0 0 0 745.744 406C595.136 406 473.04 528.848 473.04 680.4c0 83.936 37.44 159.056 96.448 209.392z m-377.28-335.584H429.76a38.768 38.768 0 0 0 38.64-38.88 38.768 38.768 0 0 0-38.64-38.88H192.224a38.768 38.768 0 0 0-38.656 38.88c0 14.32 12.88 27.28 38.656 38.88z m440.24-320.544H192.224a38.768 38.768 0 0 0-38.656 38.88 38.768 38.768 0 0 0 38.656 38.88h440.224a38.768 38.768 0 0 0 38.64-38.88 38.768 38.768 0 0 0-38.64-38.88zM745.728 896c-118.32 0-214.24-96.528-214.24-215.6 0-119.072 95.92-215.6 214.24-215.6C864.096 464.8 960 561.328 960 680.4 960 799.472 864.08 896 745.744 896z m-74.976-231.312a29.088 29.088 0 0 0-41.168-3.664 29.52 29.52 0 0 0-3.632 41.408l68.304 82.08c11.36 13.632 32.048 14.08 43.968 0.944l130.624-144.032c10.88-12 10.032-30.592-1.888-41.536a29.088 29.088 0 0 0-41.28 1.888l-108.08 119.2-46.848-56.288z" p-id="7537"></path></svg>